<mxfile host="app.diagrams.net" modified="2023-01-19T08:03:59.744Z" agent="5.0 (Windows NT 10.0; Win64; x64) AppleWebKit/537.36 (KHTML, like Gecko) Chrome/102.0.0.0 Safari/537.36" version="20.8.5" etag="Fyz8i_E5AQ5cOrt_Yw8G" type="github">
  <diagram id="VDH-c7VsQiKe6PN9G3Zr" name="第 1 页">
    <mxGraphModel dx="1290" dy="558" grid="1" gridSize="10" guides="1" tooltips="1" connect="1" arrows="1" fold="1" page="1" pageScale="1" pageWidth="827" pageHeight="1169" math="0" shadow="0">
      <root>
        <mxCell id="0" />
        <mxCell id="1" parent="0" />
        <mxCell id="lvWqTVX8Nb-l8WEWcO1l-1" value="" style="ellipse;whiteSpace=wrap;html=1;" vertex="1" parent="1">
          <mxGeometry x="170" y="220" width="120" height="80" as="geometry" />
        </mxCell>
      </root>
    </mxGraphModel>
  </diagram>
</mxfile>
